<svg width="175" height="175" viewBox="0 0 175 175" fill="none" xmlns="http://www.w3.org/2000/svg">
<g clip-path="url(#clip0_14_16)">
<path fill-rule="evenodd" clip-rule="evenodd" d="M5.64283 153.545H29.3916C29.5605 150.096 29.5611 146.648 29.5605 143.199C29.56 140.165 28.8501 136.102 32.1802 135.826C35.855 135.522 35.2039 139.777 35.2023 142.857C35.2005 146.419 35.2023 149.981 35.2023 153.542L86.2898 153.545C84.8621 150.163 79.8273 146.036 80.4396 141.924C81.1554 137.118 88.6024 135.487 88.6609 133.093C86.0408 131.088 80.4497 133.014 77.7508 129.015C75.9334 126.323 77.8052 119.889 78.4324 116.402C80.5133 104.834 79.8407 101.886 90.7652 104.014C92.1721 104.288 93.3001 104.764 93.9293 104.086C95.0806 102.508 86.9129 96.9628 89.6873 91.741C90.7076 89.8205 92.7088 88.7361 94.5758 87.4025C95.9998 86.3854 99.044 84.5294 100.026 83.4847C97.8018 81.8756 95.309 80.4536 92.4593 79.0947C88.6666 77.286 90.4848 77.6437 84.8586 81.0993C73.5125 88.0677 58.5433 88.4292 46.64 82.5448C37.7217 78.1359 41.2271 75.6557 31.1039 82.0273C22.179 87.6448 13.9187 96.5647 9.40508 108.519C4.18423 122.346 5.64306 138.003 5.64306 153.545L5.64283 153.545Z" fill="#FEFEFF"/>
<path fill-rule="evenodd" clip-rule="evenodd" d="M125.288 81.1728C127.519 80.774 138.517 83.6728 141.875 84.1047L139.847 95.6455C142.876 97.1362 143.649 97.4198 145.98 99.4407L146.617 99.9436C149.566 98.3952 153.434 94.8364 156.317 93.4097L165.588 107.492C164.772 108.293 157.089 113.646 156.159 114.062C157.772 120.838 157.442 121.924 159.451 122.481C159.814 122.582 160.518 122.69 160.92 122.765L169.133 124.402C169.439 127.178 166.76 137.635 166.32 141.429L154.744 139.348C153.767 143.104 151.297 145.003 150.666 146.275C152.133 148.998 156.208 153.796 157.031 156.333C154.522 157.304 146.688 163.835 143.275 165.637C140.932 162.672 139.207 159.25 136.705 156.168C135.795 156.275 129.414 157.87 128.66 158.198L126.428 169.288L109.921 166.131L111.936 154.401C108.219 153.47 106.896 151.308 105.263 150.281C102.741 151.421 98.3986 155.356 95.4613 156.761L86.1655 142.532C88.4969 141.199 93.5619 136.976 95.3995 136.118C95.2301 135.315 93.5423 128.552 93.3593 128.176C93.0725 128 93.3049 128.073 92.6519 127.826C91.8338 127.515 92.9981 127.903 92.1266 127.656C91.7075 127.538 91.1085 127.445 90.6635 127.358L82.4959 125.795L85.8029 108.849L97.1729 110.888C98.0771 107.346 100.015 106.207 101.23 103.886L94.9349 94.3266L108.681 84.7267L115.252 94.2194L123.24 92.0225L125.287 81.1727L125.288 81.1728ZM62.8138 -1.93492e-06H66.0311C70.8217 0.166947 75.5187 1.07962 79.2841 2.73915C99.3155 11.568 109.426 30.9829 105.068 53.1196C104.238 57.3355 102.505 61.3664 100.825 64.5978C98.1441 69.754 96.5463 70.5063 94.3269 73.8208C96.4324 74.3114 100.568 76.9585 102.53 78.2633C102.971 78.557 103.235 78.7143 103.764 79.0794L104.922 79.9726C112.485 74.9079 114.977 85.5284 117.909 87.4913C119.015 85.4004 119.02 82.0072 119.746 79.418C120.44 76.9445 122.344 75.1878 125.086 75.1878C127.558 75.1878 143.07 78.0367 144.785 79.0698C150.428 82.469 145.798 89.8319 146.368 92.2557C146.613 93.2945 147.068 92.7099 147.833 92.1852C157.486 85.5676 157.462 84.7916 165.14 96.309C171.845 106.367 175.503 108.155 165.142 114.903C162.384 116.698 163.135 115.86 163.021 117.225C164.599 117.982 168.943 118.094 170.991 118.824C173.012 119.545 174.983 121.758 174.983 124.402C174.983 126.867 172.481 140.155 171.988 142.254C171.327 145.064 169.672 146.956 166.703 147.229C164.986 147.388 160.632 145.933 158.237 145.933C155.812 145.933 163.021 152.017 163.021 156.186C163.021 160.01 157.51 162.666 154.187 165.123C152.43 166.423 150.702 167.483 148.957 168.779C144.871 171.813 141.534 173.592 137.729 167.807L135.023 163.679C134.105 162.685 135.359 163.165 133.63 163.021L132.184 170.803C131.353 173.966 129.217 174.911 126.798 174.983H126.183C123.91 174.922 121.469 174.212 119.663 173.911C117.239 173.508 108.708 172.154 107.024 171.171C102.136 168.318 105.182 162.885 105.263 159.261H102.529C101.433 159.261 95.6108 165.999 91.2607 160.618C89.6745 158.657 89.5152 159.251 86.1247 159.261L3.39538 159.283C1.28763 159.249 -0.000244141 158.598 -0.000244141 156.527V126.452C-0.000244141 119.371 1.65391 113.438 3.45717 108.037C6.73482 98.2201 13.4504 88.7955 21.2911 82.1249C22.3263 81.2443 23.2693 80.5449 24.3616 79.7272C26.797 77.9041 32.122 74.3788 34.518 73.8206C32.2984 70.5061 30.7006 69.7537 28.02 64.5975C26.2887 61.2674 24.6374 57.4691 23.777 53.1192C19.402 30.9995 29.539 11.5635 49.5607 2.73893C53.3261 1.07927 58.0231 0.166375 62.8137 -0.000230789L62.8138 -1.93492e-06ZM5.64284 153.545C5.64284 138.003 4.18401 122.345 9.40487 108.518C13.9184 96.5645 22.1788 87.6444 31.1037 82.027C41.2269 75.6552 37.7215 78.1354 46.6398 82.5444C58.5431 88.4289 73.5123 88.0675 84.8583 81.099C90.4846 77.6435 88.6664 77.2858 92.4591 79.0943C95.3087 80.4533 97.8015 81.8752 100.026 83.4843C99.0436 84.5292 95.9995 86.3852 94.5756 87.4022C92.7086 88.7357 90.7074 89.8202 89.6871 91.7407C86.9127 96.9625 95.0803 102.508 93.9291 104.085C93.2999 104.763 92.1718 104.287 90.765 104.013C79.8406 101.885 80.5131 104.834 78.4322 116.402C77.8051 119.889 75.9331 126.323 77.7506 129.015C80.4495 133.013 86.0407 131.087 88.6607 133.092C88.6023 135.487 81.1551 137.118 80.4394 141.924C79.8271 146.036 84.8619 150.163 86.2896 153.545L35.2021 153.542C35.2021 149.98 35.2003 146.419 35.2021 142.857C35.2037 139.777 35.8548 135.521 32.18 135.826C28.8499 136.101 29.5598 140.165 29.5603 143.199C29.5609 146.647 29.5603 150.096 29.3914 153.544H5.64262L5.64284 153.545ZM59.7716 5.98454C81.4919 2.94901 97.9465 20.0392 100.143 38.8917C102.679 60.6545 87.4826 78.1338 69.1443 80.7259C47.4956 83.7859 30.758 66.6373 28.7012 47.8745C26.3188 26.1418 41.1594 8.5857 59.7716 5.98442V5.98454Z" fill="#1B6CC2"/>
<path fill-rule="evenodd" clip-rule="evenodd" d="M59.7717 5.98465C41.1594 8.58581 26.3188 26.142 28.7013 47.8747C30.7581 66.6376 47.4957 83.7862 69.1444 80.7262C87.4827 78.134 102.68 60.6547 100.144 38.8919C97.9466 20.0393 81.492 2.94924 59.7717 5.98477V5.98465Z" fill="#FEFEFF"/>
<path fill-rule="evenodd" clip-rule="evenodd" d="M122.392 105.141C134.315 102.762 143.774 111.727 145.484 121.457C147.572 133.346 138.964 143.072 129.374 144.75C117.226 146.876 107.996 137.963 106.345 128.132C104.332 116.143 112.8 107.055 122.392 105.141V105.141ZM123.241 92.0226L115.252 94.2195L108.681 84.7268L94.9353 94.3267L101.23 103.886C100.016 106.207 98.0774 107.346 97.1732 110.888L85.8033 108.849L82.4962 125.795L90.6638 127.358C91.1088 127.445 91.7078 127.538 92.127 127.656C92.9985 127.903 91.8342 127.515 92.6522 127.826C93.3053 128.074 93.0729 128 93.3596 128.176C93.5427 128.552 95.2305 135.315 95.3998 136.118C93.5623 136.976 88.4972 141.199 86.1658 142.532L95.4616 156.761C98.399 155.356 102.741 151.422 105.263 150.281C106.897 151.308 108.22 153.47 111.936 154.401L109.922 166.131L126.428 169.288L128.661 158.198C129.414 157.87 135.795 156.275 136.706 156.168C139.207 159.25 140.933 162.672 143.276 165.637C146.688 163.835 154.522 157.304 157.031 156.333C156.209 153.796 152.134 148.999 150.666 146.275C151.297 145.003 153.767 143.104 154.744 139.349L166.32 141.429C166.76 137.636 169.44 127.179 169.133 124.402L160.92 122.765C160.518 122.69 159.814 122.582 159.452 122.481C157.443 121.924 157.772 120.838 156.16 114.062C157.09 113.647 164.772 108.293 165.589 107.493L156.318 93.4098C153.434 94.8365 149.567 98.3953 146.617 99.9437L145.981 99.4408C143.649 97.4199 142.877 97.1363 139.847 95.6456L141.876 84.1049C138.517 83.6729 127.52 80.774 125.288 81.1729L123.241 92.0228L123.241 92.0226Z" fill="#C1DDFB"/>
<path fill-rule="evenodd" clip-rule="evenodd" d="M123.555 110.683C116.389 112.18 110.302 118.605 111.967 127.602C113.232 134.436 120.036 140.796 128.513 139.163C135.384 137.839 141.577 130.804 139.88 122.252C138.524 115.424 131.99 108.921 123.555 110.683V110.683Z" fill="#FEFEFF"/>
<path fill-rule="evenodd" clip-rule="evenodd" d="M123.555 110.683C131.99 108.921 138.524 115.424 139.88 122.252C141.577 130.804 135.384 137.839 128.513 139.163C120.036 140.796 113.232 134.436 111.967 127.602C110.302 118.606 116.389 112.18 123.555 110.683V110.683ZM122.392 105.141C112.8 107.055 104.332 116.143 106.345 128.132C107.996 137.963 117.226 146.876 129.374 144.75C138.964 143.072 147.572 133.346 145.484 121.457C143.775 111.727 134.315 102.762 122.392 105.141V105.141Z" fill="#1B6CC2"/>
</g>
<defs>
<clipPath id="clip0_14_16">
<rect width="174.983" height="174.983" fill="white"/>
</clipPath>
</defs>
</svg>
