<svg width="58" height="78" viewBox="0 0 58 78" fill="none" xmlns="http://www.w3.org/2000/svg">
<g clip-path="url(#clip0_7_50)" filter="url(#filter0_d_7_50)">
<path fill-rule="evenodd" clip-rule="evenodd" d="M24.5351 52.9019H29.8115C30.7015 52.9019 31.3802 53.32 31.3802 54.2171V67.6618H24.5351V52.9018V52.9019ZM15.4084 54.2171C15.4084 53.32 16.0871 52.9019 16.9771 52.9019H22.2534V67.6618H15.4083V54.2172L15.4084 54.2171ZM3.99996 17.8288V68.6847C3.99996 69.3916 4.40496 70 5.14078 70H41.6478C42.4978 70 42.7886 69.4101 42.7886 68.5386V40.9186C42.7886 39.3321 40.3644 38.92 40.3644 41.2109V67.6618H33.8045V54.9478C33.8045 52.3825 32.3514 50.5637 30.382 50.5637H16.4066C14.6323 50.5637 12.984 52.2761 12.984 54.6556V67.6618H6.42417V17.6827C6.42417 16.0649 8.76143 16.5136 10.8449 16.5136L25.1115 16.5198C27.7544 16.5385 27.116 14.0293 25.248 14.0293H8.13534C5.79237 14.0293 3.99976 15.4545 3.99976 17.8289L3.99996 17.8288Z" fill="#1B6CC2"/>
<path fill-rule="evenodd" clip-rule="evenodd" d="M41.5053 2.33823C47.2005 2.33823 51.6302 6.9556 51.6302 12.8602C51.6302 15.2761 50.7336 17.0502 49.8214 18.6057L42.9392 30.5509C42.6236 31.0907 41.9016 32.5835 41.5053 32.8811C41.2888 31.929 33.3431 18.9879 32.4168 16.7667C30.3192 11.7369 32.373 6.16026 36.61 3.75175C37.2414 3.39281 38.0863 2.97538 38.7924 2.77319C39.3721 2.60716 40.801 2.3383 41.5053 2.3383L41.5053 2.33823ZM29.2412 12.2756C29.2412 15.7056 29.8469 17.2468 31.3885 19.8664L39.4279 33.8408C40.329 35.3762 40.5727 36.3884 41.6479 36.3884C42.551 36.3884 42.7779 35.5528 43.44 34.4253C43.9378 33.5777 44.3247 32.8593 44.8121 32.0318C46.1342 29.7876 52.494 18.8816 53.0382 17.518C56.5992 8.59669 49.6603 0 42.2183 0C39.7455 0 38.4695 0.0855724 36.2761 1.21753C34.7286 2.01614 33.9326 2.57768 32.7699 3.76226C31.0102 5.55505 29.2412 8.73058 29.2412 12.2756V12.2756Z" fill="#1B6CC2"/>
<path fill-rule="evenodd" clip-rule="evenodd" d="M42.0757 16.9519C40.7523 16.9519 39.5404 16.8655 38.4713 15.6768C36.4941 13.4783 36.8592 8.32981 42.0757 8.32981C43.8988 8.32981 45.8394 10.3252 45.9021 12.5788C45.9342 13.7318 45.3885 14.8723 44.8218 15.5281C44.2533 16.1857 43.218 16.9519 42.0757 16.9519H42.0757ZM34.9454 12.714C34.9454 18.3574 41.9197 21.8887 46.2476 17.4277C50.5608 12.9819 47.2992 5.84554 41.5052 5.84554C38.033 5.84554 34.9453 8.91271 34.9453 12.7141L34.9454 12.714Z" fill="#1B6CC2"/>
<path fill-rule="evenodd" clip-rule="evenodd" d="M28.3855 37.2652H33.5193V41.9416H28.3855V37.2652ZM25.9612 36.3884V42.8184C25.9612 43.9767 26.5651 44.426 27.6724 44.426H33.9471C34.9725 44.426 35.801 44.1529 35.801 43.1108V36.0962C35.801 35.1991 35.1222 34.7809 34.2323 34.7809H27.6724C26.565 34.7809 25.9612 35.2302 25.9612 36.3884V36.3884Z" fill="#1B6CC2"/>
<path fill-rule="evenodd" clip-rule="evenodd" d="M13.2693 37.2652H18.403V41.9416H13.2693V37.2652ZM10.9875 36.0961V43.1107C10.9875 44.1529 11.8159 44.4259 12.8414 44.4259H19.1161C20.1012 44.4259 20.8273 43.9576 20.8273 42.9646V36.2422C20.8273 35.2492 20.1012 34.7809 19.1161 34.7809H12.5562C11.6663 34.7809 10.9875 35.199 10.9875 36.0961Z" fill="#1B6CC2"/>
<path fill-rule="evenodd" clip-rule="evenodd" d="M13.2693 23.0898H18.403V27.7662H13.2693V23.0898ZM10.9875 21.9207V29.2276C10.9875 29.6929 11.7142 30.2506 12.2709 30.2506H19.2587C20.3276 30.2506 20.8273 29.7386 20.8273 28.643V22.0669C20.8273 21.36 20.4223 20.7516 19.6865 20.7516H12.1284C11.4386 20.7516 10.9876 21.2138 10.9876 21.9207H10.9875Z" fill="#1B6CC2"/>
<path fill-rule="evenodd" clip-rule="evenodd" d="M25.9612 22.0669V28.643C25.9612 30.7557 27.8992 30.2506 30.8098 30.2506C32.4958 30.2506 32.4747 27.7662 30.8098 27.7662H28.3855V22.213C28.3855 20.0892 25.9612 20.4203 25.9612 22.0669H25.9612Z" fill="#1B6CC2"/>
</g>
<defs>
<filter id="filter0_d_7_50" x="0" y="0" width="58" height="78" filterUnits="userSpaceOnUse" color-interpolation-filters="sRGB">
<feFlood flood-opacity="0" result="BackgroundImageFix"/>
<feColorMatrix in="SourceAlpha" type="matrix" values="0 0 0 0 0 0 0 0 0 0 0 0 0 0 0 0 0 0 127 0" result="hardAlpha"/>
<feOffset dy="4"/>
<feGaussianBlur stdDeviation="2"/>
<feComposite in2="hardAlpha" operator="out"/>
<feColorMatrix type="matrix" values="0 0 0 0 0 0 0 0 0 0 0 0 0 0 0 0 0 0 0.25 0"/>
<feBlend mode="normal" in2="BackgroundImageFix" result="effect1_dropShadow_7_50"/>
<feBlend mode="normal" in="SourceGraphic" in2="effect1_dropShadow_7_50" result="shape"/>
</filter>
<clipPath id="clip0_7_50">
<rect width="50" height="70" fill="white" transform="translate(4)"/>
</clipPath>
</defs>
</svg>
