<svg width="51" height="57" viewBox="0 0 51 57" fill="none" xmlns="http://www.w3.org/2000/svg">
<g clip-path="url(#clip0_26_469)">
<path fill-rule="evenodd" clip-rule="evenodd" d="M1.64857 57H49.4484C51.4142 57 51.6928 53.3261 49.2297 53.3261H3.72679C3.72679 50.1736 3.86646 41.3148 5.17753 38.1035C5.84509 36.4685 7.64135 34.9663 9.0425 34.0216C9.82994 33.4907 13.1676 31.4232 14.2275 31.1719L15.0792 32.643C18.9794 38.5378 26.6119 40.7666 32.6037 36.1818C33.4493 35.5349 34.2828 34.7637 34.9779 33.9224C35.9886 32.699 36.0828 32.3677 36.8695 31.1719L38.2185 31.8028C40.1132 32.7677 41.485 33.5576 43.1691 34.8911L44.2247 35.8206C46.6418 37.9744 46.9326 41.911 46.9326 45.3106C46.9326 46.6851 46.9326 48.0595 46.9286 49.4338C46.9198 52.3937 50.2188 52.1275 50.5193 50.1857C50.6491 49.3468 50.6517 46.6307 50.6517 45.6445C50.6517 39.6242 49.7949 35.5834 45.5277 32.0453C43.3732 30.259 37.6807 26.9415 35.8851 26.9415C34.2208 26.9415 34.1978 29.4227 31.7175 32.0513L31.2083 32.535C30.1772 33.5744 28.9198 34.2746 27.5016 34.6627C25.3622 35.2482 23.6333 34.7855 21.8694 33.9702C21.2306 33.6748 19.6302 32.4484 19.2406 31.9701C19.0223 31.7022 19.0038 31.6371 18.7388 31.3674C17.0112 29.6092 16.8959 26.9415 14.9932 26.9415C14.2087 26.9415 11.6222 28.2673 10.946 28.6114C7.50498 30.3625 3.1783 33.1164 1.69291 36.8947C0.800985 39.1635 0.265171 43.9579 0.230933 47.0962L0.117257 49.875C0.117257 51.3486 -0.123997 54.7276 0.0857813 55.5847C0.250905 56.2595 0.904561 57 1.64857 57V57Z" fill="#1B6CC2"/>
<path fill-rule="evenodd" clip-rule="evenodd" d="M28.2283 31.2832C28.2283 29.8937 27.8117 29.7019 26.5827 28.9503L24.9524 27.9377C22.1269 26.1061 18.9159 23.0692 17.3613 19.9666C15.7203 16.6912 15.0662 12.6558 16.6696 9.16532C16.9366 8.58416 17.175 8.06541 17.5241 7.58579C17.7081 7.33292 17.819 7.11194 18.0285 6.8746C18.2494 6.62444 18.3938 6.48118 18.6035 6.23522C21.5908 2.73091 30.0804 2.25973 33.6983 7.34665C37.4905 12.6787 35.3667 21.2552 29.287 24.345C28.5073 24.7413 27.1137 25.2762 27.4404 26.8431C28.0994 30.0041 32.1089 27.0645 33.2612 26.1633C34.4108 25.2643 35.4038 24.2293 36.2766 22.9982C40.0527 17.6719 40.3829 10.9074 36.6741 5.2086C34.8807 2.45273 30.7294 3.05176e-05 27.572 3.05176e-05H24.4605C22.3158 0.0584786 20.583 0.387549 18.0886 1.92601C13.735 4.61098 11.6599 10.1698 12.1652 15.347C12.282 16.545 12.6217 17.6155 12.8913 18.6158C13.5123 20.9199 15.5653 24.4822 17.1529 26.0791C18.2721 27.2049 18.9394 27.9837 20.1185 28.9611C21.0416 29.7262 24.9632 32.5797 26.0491 32.8428C27.2273 33.1281 28.2283 32.1184 28.2283 31.2832Z" fill="#1B6CC2"/>
<path fill-rule="evenodd" clip-rule="evenodd" d="M30.6348 41.7481V47.3145C30.6348 48.3206 31.3963 49.0957 32.3849 49.0957H40.8073C43.1218 49.0957 43.167 45.4218 40.6979 45.4218H34.2444V43.6406H40.151C43.6106 43.6406 42.9562 39.8555 40.6979 39.8555H32.4943C31.4569 39.8555 30.6348 40.6922 30.6348 41.7481L30.6348 41.7481Z" fill="#1B6CC2"/>
</g>
<defs>
<clipPath id="clip0_26_469">
<rect width="51" height="57" fill="white"/>
</clipPath>
</defs>
</svg>
