<svg width="50" height="66" viewBox="0 0 50 66" fill="none" xmlns="http://www.w3.org/2000/svg">
<g clip-path="url(#clip0_26_453)">
<path fill-rule="evenodd" clip-rule="evenodd" d="M23.9531 32.6133C23.9531 32.2435 24.733 31.6265 24.9945 31.4531C25.2561 31.6266 26.036 32.2435 26.036 32.6133V35.0625H23.9531V32.6133ZM22.9106 0.000168663H24.9003C27.9196 0.236099 30.8813 1.37543 33.4054 1.10183C34.1609 1.01997 34.623 1.29171 34.8326 1.98883C35.076 2.79862 35.3264 5.64614 35.2798 6.44569L35.1297 8.61811C35.0586 9.26987 34.9641 10.0678 34.852 10.7924C34.7544 11.4236 34.5744 12.1056 34.4381 12.8317C34.0601 14.8451 34.9262 17.7376 32.8325 21.0386C31.7728 22.7092 31.0804 23.1895 30.7225 23.7188C31.8997 23.7188 32.0744 23.8538 32.6391 24.528C32.8613 24.7931 33.031 25.0794 33.2205 25.3702C33.4022 25.6493 33.4958 25.9077 33.8096 26.076C34.1654 26.267 37.382 26.7753 38.2912 27.0523C43.1291 28.5261 43.1468 34.4663 42.4027 35.8003C42.1019 36.3395 41.5267 36.823 40.9029 37.0221C40.06 37.2911 16.6378 37.125 13.9293 37.125C10.8281 37.125 6.63019 38.147 7.17845 33.1474C7.27986 32.2227 7.38867 31.6699 7.66232 30.9194C9.494 25.8962 14.9409 26.9143 16.2607 26.0274C17.3142 25.3195 16.804 23.7188 19.2666 23.7188C18.9437 23.2414 18.4652 22.9186 18.0923 22.4323C14.9771 18.371 15.9116 15.8565 15.3074 12.944C14.588 9.47648 13.0882 4.07757 16.8449 1.85604C17.4008 1.52733 17.9285 1.25803 18.6356 1.17995C20.0024 1.02903 19.5189 0.955024 20.4896 0.566662C21.2899 0.24649 22.0993 0.0728745 22.9106 0.000106812L22.9106 0.000168663ZM9.37291 34.5469C9.37291 30.3766 10.3931 29.4675 13.9414 28.7582C14.7369 28.5992 15.7339 28.2963 16.5328 28.2305C16.8708 28.7303 17.3511 29.2011 17.7612 29.7212L20.2791 32.7709C20.9195 33.4983 21.0271 33.9618 21.8702 34.0313V35.0625H10.154C9.75425 35.0625 9.37288 34.9432 9.37288 34.5469H9.37291ZM40.486 34.9336C40.0787 34.9672 40.0235 35.0625 39.5747 35.0625H28.1189V34.0313C29.0757 33.9524 29.9534 32.4042 30.8817 31.353L32.7508 29.0788C33.0099 28.7591 33.2235 28.6107 33.326 28.2305C34.0686 28.2469 37.8402 29.0737 38.4018 29.3919C40.7647 30.731 40.853 34.1203 40.486 34.9336H40.486ZM27.9887 31.3243L26.5256 29.9372C27.4556 29.2938 30.4536 26.3502 31.2432 26.1681C31.3332 26.502 31.47 26.6351 31.6338 26.9415C31.2805 27.6024 30.3999 28.5173 29.8675 29.1886C29.4635 29.6979 28.4418 31.0239 27.9887 31.3243V31.3243ZM18.8761 26.1681L23.3022 29.9063C23.1825 30.3501 22.3871 31.0678 22.0004 31.3243C21.5748 31.0421 21.4066 30.7169 21.0556 30.3262C20.4617 29.6652 18.7353 27.4086 18.2252 27.0704C18.4094 26.7257 18.5682 26.3915 18.8761 26.1681V26.1681ZM29.1603 24.879L27.0966 26.7026C26.5564 27.1347 25.4358 28.2276 24.8644 28.3594L22.8143 26.6511C22.4429 26.3092 22.1898 26.1454 21.8376 25.8136C21.4737 25.4707 21.0966 25.2749 20.8288 24.879C21.3383 25.0136 20.8243 24.8649 21.2872 25.0696C25.934 27.1242 27.4203 25.2804 29.1603 24.879V24.879ZM24.9946 23.8477C20.9062 23.8477 17.7045 19.451 17.7045 15.34C17.7045 12.963 18.0604 11.9762 19.0417 9.96099C19.1026 9.8358 19.1411 9.72311 19.2222 9.62409C19.6996 9.04074 22.6494 9.2814 23.823 9.2814C25.1401 9.2814 26.7844 9.53468 27.8601 9.79548L31.3734 10.8283C31.4981 12.313 32.2846 11.4535 32.2846 14.6955C32.2846 18.095 30.7233 21.3962 28.1973 22.8942C27.3774 23.3804 26.2414 23.8478 24.9946 23.8478V23.8477ZM16.7932 9.5392C16.7932 8.36938 15.5344 3.78291 19.036 3.25229C19.649 3.15942 19.7992 3.31433 20.3156 3.10138C20.8097 2.89764 21.6835 2.06268 23.6928 2.06268C26.1098 2.06268 30.2735 3.35175 32.9356 3.35175L33.0657 6.31661C33.0657 7.48881 32.9356 8.13094 32.9356 9.2814C29.672 7.57144 25.8819 7.09002 21.6099 7.09002C20.7468 7.09002 18.9239 7.18447 18.2781 7.40027C17.7521 7.57602 17.6507 7.95312 17.4427 8.37773L17.0091 9.2374C16.8527 9.49569 16.9435 9.36803 16.7932 9.5392Z" fill="#1B6CC2"/>
<path fill-rule="evenodd" clip-rule="evenodd" d="M23.9531 40.2187V43.3124H7.94097C5.53941 43.3124 3.12427 45.7039 3.12427 48.082V54.6562C3.12427 55.2797 3.53599 55.6874 4.1657 55.6874C5.46652 55.6874 5.20749 54.3637 5.20714 53.1093C5.20614 49.4451 4.41125 45.375 8.72203 45.375H23.9531V54.6562C23.9531 56.0398 26.036 56.0398 26.036 54.6562V45.375H41.3972C47.71 45.375 42.7661 55.6874 45.8233 55.6874C46.453 55.6874 46.8648 55.2797 46.8648 54.6562V48.082C46.8648 45.7039 44.4496 43.3124 42.0481 43.3124H26.036C26.036 41.1148 26.4523 39.1875 24.9945 39.1875C24.3648 39.1875 23.9531 39.5952 23.9531 40.2187H23.9531Z" fill="#1B6CC2"/>
<path fill-rule="evenodd" clip-rule="evenodd" d="M22.9118 62.0038C22.8182 61.4051 23.4262 59.9455 24.8896 59.8439C26.0415 59.7639 26.9754 60.7481 27.0459 61.7705C27.1631 63.4721 25.0212 64.6203 23.6165 63.3684C23.4578 63.227 23.25 62.9307 23.1754 62.7738C23.1417 62.7029 22.9179 62.0433 22.9117 62.0038H22.9118ZM25.339 65.9998H24.4806C23.5981 65.9073 22.7166 65.5213 21.9631 64.7478C21.051 63.8115 20.8289 62.9763 20.8289 61.617C20.8289 58.1997 25.3932 56.3937 27.9616 58.9369C29.0223 59.9872 29.1604 60.9226 29.1604 62.2616C29.1604 64.1607 27.358 65.792 25.339 65.9998Z" fill="#1B6CC2"/>
<path fill-rule="evenodd" clip-rule="evenodd" d="M43.7406 62.0038C43.6386 61.351 44.2548 59.9455 45.7184 59.8439C48.3253 59.6627 48.686 63.7198 45.9288 63.906C45.1666 63.9575 44.3325 63.4644 44.0043 62.7738C43.9706 62.7029 43.7468 62.0433 43.7406 62.0037V62.0038ZM46.1854 65.9998H45.4615C44.5066 65.9201 43.5754 65.5246 42.8565 64.8127C41.7958 63.7624 41.6577 62.827 41.6577 61.4881C41.6577 60.4891 42.372 59.3983 42.9221 58.8729C43.5106 58.3108 44.454 57.7498 45.5631 57.7498C50.103 57.7498 51.1217 62.5043 48.7904 64.8127C48.0716 65.5246 47.1403 65.9202 46.1855 65.9998H46.1854Z" fill="#1B6CC2"/>
<path fill-rule="evenodd" clip-rule="evenodd" d="M2.08291 61.8748C2.08291 59.2365 6.22161 59.1904 6.22161 61.8748C6.22161 64.5786 2.08291 64.4865 2.08291 61.8748ZM4.45782 65.9998H3.81708C1.85373 65.8589 0 64.412 0 61.617C0 59.6277 1.89642 57.7498 3.90541 57.7498C8.42504 57.7498 9.47759 62.4908 7.13272 64.8127C6.407 65.5313 5.44233 65.9288 4.45782 65.9998Z" fill="#1B6CC2"/>
</g>
<defs>
<clipPath id="clip0_26_453">
<rect width="50" height="66" fill="white"/>
</clipPath>
</defs>
</svg>
