<svg width="228" height="148" viewBox="0 0 228 148" fill="none" xmlns="http://www.w3.org/2000/svg">
<path d="M13.2401 103.13C-2.22879 120.891 12.6672 143.749 34.7174 143.749L184.895 143.698C212.66 143.698 226.054 129.186 223.474 111.841C218.213 76.4772 155.157 89.8229 160.053 54.8498C166.19 11.0104 122.488 2.59916 100.431 8.96457C56.8841 21.5318 72.7529 45.0207 68.8047 70.2885C64.8566 95.5564 32.309 81.2363 13.2401 103.13Z" fill="#EBF5FF"/>
<rect x="10.0244" y="143.773" width="209.941" height="4.02344" rx="2.01172" fill="#2A4F9E"/>
<path d="M193.085 58.2241C178.261 58.2241 166.204 46.2104 166.204 31.4396C166.204 16.6688 178.261 4.65503 193.085 4.65503C207.909 4.65503 219.966 16.6688 219.966 31.4396C219.966 46.2104 207.909 58.2241 193.085 58.2241ZM193.085 9.80194C181.112 9.80194 171.376 19.5096 171.376 31.4331C171.376 43.3631 181.118 53.0643 193.085 53.0643C205.058 53.0643 214.794 43.3567 214.794 31.4331C214.794 19.5096 205.058 9.80194 193.085 9.80194Z" fill="#EBF5FF"/>
<path d="M193.085 48.407C183.692 48.407 176.057 40.7929 176.057 31.4396C176.057 22.0798 183.698 14.4722 193.085 14.4722C202.478 14.4722 210.113 22.0862 210.113 31.4396C210.113 40.7929 202.472 48.407 193.085 48.407ZM193.085 19.6191C186.549 19.6191 181.228 24.9206 181.228 31.4331C181.228 37.9457 186.549 43.2472 193.085 43.2472C199.621 43.2472 204.941 37.9457 204.941 31.4331C204.941 24.9206 199.621 19.6191 193.085 19.6191Z" fill="#EBF5FF"/>
<path d="M193.085 38.1389C196.798 38.1389 199.809 35.1395 199.809 31.4396C199.809 27.7396 196.798 24.7402 193.085 24.7402C189.372 24.7402 186.362 27.7396 186.362 31.4396C186.362 35.1395 189.372 38.1389 193.085 38.1389Z" fill="#EBF5FF"/>
<path d="M25.4671 44.2783L22.7759 46.2391C23.1231 47.4502 23.6079 48.6036 24.2083 49.6849L27.5001 49.1731C28.4767 50.6148 29.7283 51.8619 31.1752 52.8351L30.6616 56.115C31.7468 56.7133 32.9043 57.1963 34.1197 57.5423L36.0875 54.8607C36.9267 55.0265 37.7949 55.113 38.6847 55.113C39.5746 55.113 40.4427 55.0265 41.2819 54.8607L43.2497 57.5423C44.4652 57.1963 45.6227 56.7133 46.7079 56.115L46.1942 52.8351C47.6411 51.8619 48.8927 50.6148 49.8694 49.1731L53.1611 49.6849C53.7616 48.6036 54.2463 47.4502 54.5936 46.2391L51.9023 44.2783C52.0687 43.4421 52.1555 42.5771 52.1555 41.6904C52.1555 40.8038 52.0687 39.9387 51.9023 39.1025L54.5936 37.1417C54.2463 35.9307 53.7688 34.7773 53.1611 33.696L49.8694 34.2078C48.8927 32.7661 47.6411 31.519 46.1942 30.5458L46.7079 27.2658C45.6227 26.6675 44.4652 26.1845 43.2497 25.8385L41.2819 28.5201C40.4427 28.3543 39.5746 28.2678 38.6847 28.2678C37.7949 28.2678 36.9267 28.3543 36.0875 28.5201L34.1197 25.8385C32.9043 26.1845 31.7468 26.6675 30.6616 27.2658L31.1752 30.5458C29.7283 31.519 28.4767 32.7661 27.5001 34.2078L24.2083 33.696C23.6079 34.7773 23.1231 35.9307 22.7759 37.1417L25.4671 39.1025C25.3007 39.9387 25.2139 40.8038 25.2139 41.6904C25.2139 42.5771 25.3007 43.4421 25.4671 44.2783ZM32.0434 41.6904C32.0434 38.0356 35.0168 35.0728 38.6847 35.0728C42.3527 35.0728 45.3261 38.0356 45.3261 41.6904C45.3261 45.3452 42.3527 48.308 38.6847 48.308C35.0168 48.308 32.0434 45.3452 32.0434 41.6904Z" fill="#EBF5FF"/>
<path d="M48.7625 64.5422L47.4169 65.5226C47.5905 66.1281 47.8293 66.7048 48.1331 67.2455L49.7826 66.9932C50.2673 67.714 50.8967 68.3412 51.6202 68.8242L51.367 70.4678C51.9096 70.7705 52.4883 71.0084 53.0961 71.1814L54.08 69.8406C54.4996 69.9199 54.9336 69.9631 55.3822 69.9631C55.8235 69.9631 56.2576 69.9199 56.6844 69.8406L57.6683 71.1814C58.276 71.0084 58.8548 70.7705 59.3974 70.4678L59.1442 68.8242C59.8676 68.3412 60.497 67.714 60.9817 66.9932L62.6312 67.2455C62.9351 66.7048 63.1738 66.1281 63.3475 65.5226L62.0018 64.5422C62.0814 64.1241 62.1248 63.6916 62.1248 63.2446C62.1248 62.8049 62.0814 62.3724 62.0018 61.9471L63.3475 60.9667C63.1738 60.3612 62.9351 59.7845 62.6312 59.2438L60.9817 59.4961C60.497 58.7752 59.8676 58.1481 59.1442 57.6651L59.3974 56.0215C58.8548 55.7188 58.276 55.4809 57.6683 55.3079L56.6844 56.6487C56.2648 56.5694 55.8307 56.5261 55.3822 56.5261C54.9409 56.5261 54.5068 56.5694 54.08 56.6487L53.0888 55.3223C52.4811 55.4953 51.9023 55.7332 51.3597 56.0359L51.613 57.6795C50.8895 58.1625 50.2601 58.7897 49.7754 59.5105L48.1259 59.2582C47.822 59.7989 47.5833 60.3756 47.4097 60.9811L48.7553 61.9615C48.6757 62.3796 48.6323 62.8121 48.6323 63.2591C48.6323 63.6916 48.6757 64.1241 48.7625 64.5422ZM52.047 63.2518C52.047 61.4208 53.5374 59.9431 55.3677 59.9431C57.1981 59.9431 58.6884 61.428 58.6884 63.2518C58.6884 65.0756 57.1981 66.5606 55.3677 66.5606C53.5374 66.5606 52.047 65.0756 52.047 63.2518Z" fill="#EBF5FF"/>
<path d="M91.8686 31.4397H79.942C77.4408 31.4397 75.5896 33.4603 75.8086 35.9525L82.5774 113.008C82.7964 115.5 85.0009 117.521 87.5021 117.521H99.4287L91.8686 31.4397Z" fill="#407BFF"/>
<path d="M91.8686 31.4397H79.942C77.4408 31.4397 75.5896 33.4603 75.8086 35.9525L82.5774 113.008C82.7964 115.5 85.0009 117.521 87.5021 117.521H99.4287L91.8686 31.4397Z" fill="#0A50A2"/>
<path d="M157.628 113.966C157.317 113.846 156.992 113.86 156.702 113.966H133.633L123.932 142.289H148.273L148.782 140.754H150.244L158.391 115.571C158.603 114.916 158.271 114.212 157.628 113.966ZM147.051 127.314L146.21 129.905C145.687 131.517 144.189 132.608 142.486 132.608H141.32C139.286 132.608 137.837 130.63 138.466 128.701L139.307 126.11C139.83 124.498 141.327 123.407 143.03 123.407H144.196C146.231 123.407 147.672 125.385 147.051 127.314Z" fill="#263238"/>
<path opacity="0.3" d="M157.628 113.966C157.317 113.846 156.992 113.86 156.702 113.966H133.633L123.932 142.289H148.273L148.782 140.754H150.244L158.391 115.571C158.603 114.916 158.271 114.212 157.628 113.966ZM147.051 127.314L146.21 129.905C145.687 131.517 144.189 132.608 142.486 132.608H141.32C139.286 132.608 137.837 130.63 138.466 128.701L139.307 126.11C139.83 124.498 141.327 123.407 143.03 123.407H144.196C146.231 123.407 147.672 125.385 147.051 127.314Z" fill="white"/>
<path d="M176.691 140.747H152.696C153.41 140.747 153.996 141.324 153.996 142.042V142.528C153.996 143.239 153.417 143.823 152.696 143.823H176.691C177.405 143.823 177.991 143.246 177.991 142.528V142.042C177.984 141.331 177.405 140.747 176.691 140.747Z" fill="#263238"/>
<path opacity="0.3" d="M176.691 140.747H152.696C153.41 140.747 153.996 141.324 153.996 142.042V142.528C153.996 143.239 153.417 143.823 152.696 143.823H176.691C177.405 143.823 177.991 143.246 177.991 142.528V142.042C177.984 141.331 177.405 140.747 176.691 140.747Z" fill="white"/>
<path d="M152.689 143.823H122.519L131.923 114.768C132.149 114.057 132.934 113.691 133.633 113.959C134.269 114.205 134.608 114.909 134.396 115.557L126.25 140.74H152.696C153.41 140.74 153.996 141.317 153.996 142.035V142.521C153.989 143.246 153.41 143.823 152.689 143.823Z" fill="#263238"/>
<g opacity="0.6">
<path opacity="0.6" d="M152.689 143.823H122.519L131.923 114.768C132.149 114.057 132.934 113.691 133.633 113.959C134.269 114.205 134.608 114.909 134.396 115.557L126.25 140.74H152.696C153.41 140.74 153.996 141.317 153.996 142.035V142.521C153.989 143.246 153.41 143.823 152.689 143.823Z" fill="white"/>
</g>
<path d="M144.197 123.406H143.031C142.946 123.406 142.861 123.421 142.776 123.428C144.635 123.632 145.885 125.49 145.299 127.314L144.458 129.905C143.963 131.432 142.579 132.481 140.989 132.587C141.102 132.601 141.208 132.608 141.321 132.608H142.487C144.182 132.608 145.687 131.517 146.21 129.905L147.051 127.314C147.673 125.385 146.231 123.406 144.197 123.406Z" fill="#263238"/>
<path d="M197.4 117.521H90.59C88.0888 117.521 85.8773 115.5 85.6653 113.008L78.8965 35.9525C78.6775 33.4603 80.5286 31.4397 83.0298 31.4397H189.84C192.341 31.4397 194.552 33.4603 194.771 35.9525L201.54 113.008C201.752 115.5 199.901 117.521 197.4 117.521Z" fill="#407BFF"/>
<path d="M197.4 117.521H90.59C88.0888 117.521 85.8773 115.5 85.6653 113.008L78.8965 35.9525C78.6775 33.4603 80.5286 31.4397 83.0298 31.4397H189.84C192.341 31.4397 194.552 33.4603 194.771 35.9525L201.54 113.008C201.752 115.5 199.901 117.521 197.4 117.521Z" fill="#0F99E0"/>
<path d="M84.98 105.221L85.6653 113.001C85.8844 115.493 88.0888 117.514 90.59 117.514H197.4C199.901 117.514 201.752 115.493 201.533 113.001L200.848 105.221H84.98Z" fill="#407BFF"/>
<path d="M84.98 105.221L85.6653 113.001C85.8844 115.493 88.0888 117.514 90.59 117.514H197.4C199.901 117.514 201.752 115.493 201.533 113.001L200.848 105.221H84.98Z" fill="#0A50A3"/>
<path d="M82.6909 35.2834L88.4988 101.377H196.658L190.857 35.2834H82.6909Z" fill="white"/>
<path d="M41.8718 81.5112H37.5455C35.7875 81.5112 34.4925 82.9313 34.6444 84.6831L39.4627 139.556C39.6146 141.307 41.1628 142.727 42.9208 142.727H47.2471L41.8718 81.5112Z" fill="#407BFF"/>
<path d="M41.8718 81.5112H37.5455C35.7875 81.5112 34.4925 82.9313 34.6444 84.6831L39.4627 139.556C39.6146 141.307 41.1628 142.727 42.9208 142.727H47.2471L41.8718 81.5112Z" fill="#0F99E0"/>
<path d="M112.156 142.72H44.8017C43.0437 142.72 41.4955 141.3 41.3435 139.549L36.5253 84.676C36.3734 82.9243 37.6684 81.5042 39.4264 81.5042H106.78C108.538 81.5042 110.087 82.9243 110.238 84.676L115.057 139.549C115.209 141.3 113.914 142.72 112.156 142.72Z" fill="#407BFF"/>
<path d="M112.156 142.72H44.8017C43.0437 142.72 41.4955 141.3 41.3435 139.549L36.5253 84.676C36.3734 82.9243 37.6684 81.5042 39.4264 81.5042H106.78C108.538 81.5042 110.087 82.9243 110.238 84.676L115.057 139.549C115.209 141.3 113.914 142.72 112.156 142.72Z" fill="#9ADDFF"/>
<path d="M156.526 138.179H82.8125V143.773H152.192C154.587 143.773 156.533 141.834 156.533 139.447V138.179H156.526Z" fill="#407BFF"/>
<path d="M156.526 138.179H82.8125V143.773H152.192C154.587 143.773 156.533 141.834 156.533 139.447V138.179H156.526Z" fill="#0F99E0"/>
<path d="M125.735 140.976H119.846C118.298 140.976 117.039 139.721 117.039 138.179H128.549C128.542 139.721 127.29 140.976 125.735 140.976Z" fill="#9ADDFF"/>
<path d="M110.825 133.45L106.585 85.1877H40.2656L44.5051 133.45H110.825Z" fill="white"/>
<path d="M76.3661 83.3784C76.4023 83.8326 76.0695 84.2002 75.6137 84.2002C75.158 84.2002 74.7601 83.8326 74.7239 83.3784C74.6877 82.9243 75.0205 82.5566 75.4763 82.5566C75.9248 82.5638 76.33 82.9315 76.3661 83.3784Z" fill="white"/>
<path d="M87.7751 138.179H41.5679V139.455C41.5679 141.841 43.514 143.78 45.9086 143.78H83.4416C85.8363 143.78 87.7824 141.841 87.7824 139.455V138.179H87.7751Z" fill="#0076CB"/>
<path opacity="0.4" d="M48.7807 141.495H45.5758C45.1851 141.495 44.874 141.185 44.874 140.796C44.874 140.407 45.1851 140.097 45.5758 140.097H48.7807C49.1714 140.097 49.4824 140.407 49.4824 140.796C49.4824 141.185 49.1641 141.495 48.7807 141.495Z" fill="#9ADDFF"/>
<path opacity="0.4" d="M55.6679 141.495H52.463C52.0723 141.495 51.7612 141.185 51.7612 140.796C51.7612 140.406 52.0723 140.096 52.463 140.096H55.6679C56.0586 140.096 56.3697 140.406 56.3697 140.796C56.3697 141.185 56.0586 141.495 55.6679 141.495Z" fill="#9ADDFF"/>
<path d="M101.463 122.183H67.2581C66.7879 122.183 66.3683 121.801 66.3249 121.332C66.2815 120.864 66.636 120.481 67.1062 120.481H101.311C101.782 120.481 102.201 120.864 102.245 121.332C102.281 121.801 101.934 122.183 101.463 122.183Z" fill="#EBEBEB"/>
<path d="M90.9729 126.212H67.6776C67.2073 126.212 66.7877 125.83 66.7443 125.362C66.7009 124.893 67.0554 124.511 67.5257 124.511H90.8283C91.2985 124.511 91.7181 124.893 91.7615 125.362C91.7977 125.83 91.4504 126.212 90.9729 126.212Z" fill="#EBEBEB"/>
<path d="M99.9364 109.56H65.7313C65.261 109.56 64.8414 109.178 64.798 108.71C64.7546 108.241 65.1091 107.859 65.5794 107.859H99.7845C100.255 107.859 100.674 108.241 100.718 108.71C100.761 109.178 100.407 109.56 99.9364 109.56Z" fill="#EBEBEB"/>
<path d="M89.4466 113.59H66.1512C65.681 113.59 65.2614 113.208 65.218 112.739C65.1745 112.271 65.529 111.889 65.9993 111.889H89.3019C89.7721 111.889 90.1917 112.271 90.2351 112.739C90.2713 113.208 89.9241 113.59 89.4466 113.59Z" fill="#EBEBEB"/>
<path d="M98.4896 95.4962H64.2845C63.8143 95.4962 63.3947 95.1141 63.3513 94.6455C63.3078 94.177 63.6623 93.7949 64.1326 93.7949H98.3377C98.8079 93.7949 99.2276 94.177 99.271 94.6455C99.3144 95.1213 98.9599 95.4962 98.4896 95.4962Z" fill="#EBEBEB"/>
<path d="M87.9998 100.247H64.7044C64.2342 100.247 63.8146 99.8646 63.7712 99.396C63.7278 98.9275 64.0823 98.5454 64.5525 98.5454H87.8551C88.3253 98.5454 88.745 98.9275 88.7884 99.396C88.8245 99.8646 88.4773 100.247 87.9998 100.247Z" fill="#EBEBEB"/>
<path d="M59.4373 127.734H54.4527C53.7509 127.734 53.1288 127.164 53.0637 126.465L52.6296 121.498C52.6006 121.145 52.7092 120.813 52.9407 120.561C53.1722 120.309 53.4905 120.172 53.845 120.172H58.8296C59.5314 120.172 60.1536 120.741 60.2187 121.44L60.6527 126.407C60.6817 126.76 60.5732 127.092 60.3417 127.344C60.1101 127.597 59.7918 127.734 59.4373 127.734ZM53.8378 120.763C53.6569 120.763 53.4905 120.835 53.3748 120.957C53.259 121.087 53.2011 121.253 53.2156 121.44L53.6497 126.407C53.6858 126.811 54.0403 127.135 54.4455 127.135H59.4301C59.611 127.135 59.7774 127.063 59.8931 126.941C60.0089 126.811 60.0667 126.645 60.0523 126.458L59.6182 121.491C59.582 121.087 59.2275 120.763 58.8224 120.763H53.8378Z" fill="#263238"/>
<path opacity="0.5" d="M59.4373 127.734H54.4527C53.7509 127.734 53.1288 127.164 53.0637 126.465L52.6296 121.498C52.6006 121.145 52.7092 120.813 52.9407 120.561C53.1722 120.309 53.4905 120.172 53.845 120.172H58.8296C59.5314 120.172 60.1536 120.741 60.2187 121.44L60.6527 126.407C60.6817 126.76 60.5732 127.092 60.3417 127.344C60.1101 127.597 59.7918 127.734 59.4373 127.734ZM53.8378 120.763C53.6569 120.763 53.4905 120.835 53.3748 120.957C53.259 121.087 53.2011 121.253 53.2156 121.44L53.6497 126.407C53.6858 126.811 54.0403 127.135 54.4455 127.135H59.4301C59.611 127.135 59.7774 127.063 59.8931 126.941C60.0089 126.811 60.0667 126.645 60.0523 126.458L59.6182 121.491C59.582 121.087 59.2275 120.763 58.8224 120.763H53.8378Z" fill="white"/>
<path d="M55.603 126.018L51.7976 122.529C51.5299 122.283 51.5155 121.873 51.7614 121.606C52.0074 121.339 52.4198 121.325 52.6875 121.57L55.5234 124.165L61.0217 118.16C61.2677 117.893 61.68 117.872 61.9477 118.117C62.2154 118.362 62.2371 118.773 61.9911 119.04L55.603 126.018Z" fill="#407BFF"/>
<path d="M55.603 126.018L51.7976 122.529C51.5299 122.283 51.5155 121.873 51.7614 121.606C52.0074 121.339 52.4198 121.325 52.6875 121.57L55.5234 124.165L61.0217 118.16C61.2677 117.893 61.68 117.872 61.9477 118.117C62.2154 118.362 62.2371 118.773 61.9911 119.04L55.603 126.018Z" fill="#0076CB"/>
<path d="M57.911 115.111H52.9263C52.2246 115.111 51.6024 114.542 51.5373 113.842L51.1032 108.875C51.0743 108.522 51.1828 108.191 51.4143 107.938C51.6458 107.686 51.9641 107.549 52.3186 107.549H57.3033C58.005 107.549 58.6272 108.119 58.6923 108.818L59.1264 113.785C59.1553 114.138 59.0468 114.469 58.8153 114.722C58.5838 114.974 58.2655 115.111 57.911 115.111ZM52.3114 108.14C52.1305 108.14 51.9641 108.212 51.8484 108.335C51.7326 108.465 51.6747 108.63 51.6892 108.818L52.1233 113.785C52.1595 114.188 52.514 114.513 52.9191 114.513H57.9037C58.0846 114.513 58.251 114.441 58.3667 114.318C58.4825 114.188 58.5404 114.022 58.5259 113.835L58.0918 108.868C58.0557 108.465 57.7012 108.14 57.296 108.14H52.3114Z" fill="#263238"/>
<path opacity="0.5" d="M57.911 115.111H52.9263C52.2246 115.111 51.6024 114.542 51.5373 113.842L51.1032 108.875C51.0743 108.522 51.1828 108.191 51.4143 107.938C51.6458 107.686 51.9641 107.549 52.3186 107.549H57.3033C58.005 107.549 58.6272 108.119 58.6923 108.818L59.1264 113.785C59.1553 114.138 59.0468 114.469 58.8153 114.722C58.5838 114.974 58.2655 115.111 57.911 115.111ZM52.3114 108.14C52.1305 108.14 51.9641 108.212 51.8484 108.335C51.7326 108.465 51.6747 108.63 51.6892 108.818L52.1233 113.785C52.1595 114.188 52.514 114.513 52.9191 114.513H57.9037C58.0846 114.513 58.251 114.441 58.3667 114.318C58.4825 114.188 58.5404 114.022 58.5259 113.835L58.0918 108.868C58.0557 108.465 57.7012 108.14 57.296 108.14H52.3114Z" fill="white"/>
<path d="M54.0766 113.395L50.2712 109.906C50.0036 109.661 49.9891 109.25 50.2351 108.984C50.481 108.717 50.8934 108.702 51.1611 108.948L53.997 111.543L59.4953 105.538C59.7413 105.271 60.1537 105.249 60.4214 105.495C60.689 105.74 60.7107 106.151 60.4648 106.417L54.0766 113.395Z" fill="#407BFF"/>
<path d="M54.0766 113.395L50.2712 109.906C50.0036 109.661 49.9891 109.25 50.2351 108.984C50.481 108.717 50.8934 108.702 51.1611 108.948L53.997 111.543L59.4953 105.538C59.7413 105.271 60.1537 105.249 60.4214 105.495C60.689 105.74 60.7107 106.151 60.4648 106.417L54.0766 113.395Z" fill="#0076CB"/>
<path d="M56.4642 101.768H51.4796C50.7778 101.768 50.1556 101.198 50.0905 100.499L49.6564 95.5322C49.6275 95.179 49.736 94.8474 49.9675 94.5951C50.199 94.3428 50.5174 94.2058 50.8718 94.2058H55.8565C56.5582 94.2058 57.1804 94.7753 57.2455 95.4745L57.6796 100.441C57.7085 100.795 57.6 101.126 57.3685 101.378C57.137 101.631 56.8187 101.768 56.4642 101.768ZM50.8646 94.7969C50.6838 94.7969 50.5174 94.869 50.4016 94.9916C50.2858 95.1213 50.228 95.2871 50.2424 95.4745L50.6765 100.441C50.7127 100.845 51.0672 101.169 51.4723 101.169H56.4569C56.6378 101.169 56.8042 101.097 56.92 100.975C57.0357 100.845 57.0936 100.679 57.0791 100.492L56.645 95.525C56.6089 95.1213 56.2544 94.7969 55.8492 94.7969H50.8646Z" fill="#263238"/>
<path opacity="0.5" d="M56.4642 101.768H51.4796C50.7778 101.768 50.1556 101.198 50.0905 100.499L49.6564 95.5322C49.6275 95.179 49.736 94.8474 49.9675 94.5951C50.199 94.3428 50.5174 94.2058 50.8718 94.2058H55.8565C56.5582 94.2058 57.1804 94.7753 57.2455 95.4745L57.6796 100.441C57.7085 100.795 57.6 101.126 57.3685 101.378C57.137 101.631 56.8187 101.768 56.4642 101.768ZM50.8646 94.7969C50.6838 94.7969 50.5174 94.869 50.4016 94.9916C50.2858 95.1213 50.228 95.2871 50.2424 95.4745L50.6765 100.441C50.7127 100.845 51.0672 101.169 51.4723 101.169H56.4569C56.6378 101.169 56.8042 101.097 56.92 100.975C57.0357 100.845 57.0936 100.679 57.0791 100.492L56.645 95.525C56.6089 95.1213 56.2544 94.7969 55.8492 94.7969H50.8646Z" fill="white"/>
<path d="M52.6298 100.059L48.8245 96.5701C48.5568 96.325 48.5423 95.9141 48.7883 95.6474C49.0343 95.3807 49.4466 95.3662 49.7143 95.6113L52.5503 98.2065L58.0485 92.2016C58.2945 91.9349 58.7069 91.9133 58.9746 92.1584C59.2423 92.4035 59.264 92.8144 59.018 93.0811L52.6298 100.059Z" fill="#407BFF"/>
<path d="M52.6298 100.059L48.8245 96.5701C48.5568 96.325 48.5423 95.9141 48.7883 95.6474C49.0343 95.3807 49.4466 95.3662 49.7143 95.6113L52.5503 98.2065L58.0485 92.2016C58.2945 91.9349 58.7069 91.9133 58.9746 92.1584C59.2423 92.4035 59.264 92.8144 59.018 93.0811L52.6298 100.059Z" fill="#0076CB"/>
<path d="M175.044 83.9177H133.287C132.708 83.9177 132.199 83.453 132.149 82.8757C132.1 82.2984 132.524 81.8337 133.103 81.8337H174.861C175.44 81.8337 175.949 82.2984 175.998 82.8757C176.048 83.453 175.624 83.9177 175.044 83.9177Z" fill="#EBEBEB"/>
<path d="M162.241 88.8315H133.803C133.223 88.8315 132.715 88.3668 132.665 87.7895C132.616 87.2122 133.04 86.7476 133.619 86.7476H162.065C162.644 86.7476 163.153 87.2122 163.202 87.7895C163.245 88.3668 162.821 88.8315 162.241 88.8315Z" fill="#EBEBEB"/>
<path d="M173.186 68.5068H131.429C130.849 68.5068 130.34 68.0421 130.291 67.4648C130.242 66.8875 130.665 66.4229 131.245 66.4229H173.002C173.582 66.4229 174.09 66.8875 174.14 67.4648C174.189 68.0421 173.758 68.5068 173.186 68.5068Z" fill="#EBEBEB"/>
<path d="M160.383 73.4208H131.937C131.358 73.4208 130.849 72.9562 130.8 72.3789C130.75 71.8016 131.174 71.3369 131.754 71.3369H160.2C160.779 71.3369 161.288 71.8016 161.337 72.3789C161.387 72.9562 160.956 73.4208 160.383 73.4208Z" fill="#EBEBEB"/>
<path d="M171.419 51.3422H129.662C129.083 51.3422 128.574 50.8776 128.524 50.3003C128.475 49.723 128.899 49.2583 129.478 49.2583H171.236C171.815 49.2583 172.324 49.723 172.373 50.3003C172.423 50.8705 171.992 51.3422 171.419 51.3422Z" fill="#EBEBEB"/>
<path d="M158.617 57.1364H130.171C129.591 57.1364 129.083 56.6717 129.033 56.0944C128.984 55.5171 129.408 55.0525 129.987 55.0525H158.433C159.012 55.0525 159.521 55.5171 159.571 56.0944C159.62 56.6717 159.189 57.1364 158.617 57.1364Z" fill="#EBEBEB"/>
<path d="M123.741 90.6905H117.658C116.796 90.6905 116.04 89.9935 115.962 89.1416L115.432 83.0729C115.397 82.6435 115.531 82.2351 115.814 81.9324C116.096 81.6297 116.485 81.4607 116.916 81.4607H122.992C123.854 81.4607 124.61 82.1577 124.688 83.0095L125.218 89.0782C125.253 89.5077 125.119 89.916 124.837 90.2188C124.561 90.5215 124.172 90.6905 123.741 90.6905ZM116.909 82.1858C116.683 82.1858 116.485 82.2703 116.344 82.4252C116.202 82.5801 116.132 82.7913 116.153 83.0095L116.683 89.0782C116.725 89.5711 117.163 89.9653 117.651 89.9653H123.734C123.96 89.9653 124.158 89.8808 124.3 89.726C124.441 89.5711 124.512 89.3599 124.49 89.1416L123.96 83.0729C123.918 82.5801 123.48 82.1858 122.992 82.1858H116.909Z" fill="#263238"/>
<g opacity="0.5">
<path opacity="0.5" d="M123.741 90.6905H117.658C116.796 90.6905 116.04 89.9935 115.962 89.1416L115.432 83.0729C115.397 82.6435 115.531 82.2351 115.814 81.9324C116.096 81.6297 116.485 81.4607 116.916 81.4607H122.992C123.854 81.4607 124.61 82.1577 124.688 83.0095L125.218 89.0782C125.253 89.5077 125.119 89.916 124.837 90.2188C124.561 90.5215 124.172 90.6905 123.741 90.6905ZM116.909 82.1858C116.683 82.1858 116.485 82.2703 116.344 82.4252C116.202 82.5801 116.132 82.7913 116.153 83.0095L116.683 89.0782C116.725 89.5711 117.163 89.9653 117.651 89.9653H123.734C123.96 89.9653 124.158 89.8808 124.3 89.726C124.441 89.5711 124.512 89.3599 124.49 89.1416L123.96 83.0729C123.918 82.5801 123.48 82.1858 122.992 82.1858H116.909Z" fill="white"/>
</g>
<path d="M119.064 88.5993L114.415 84.34C114.09 84.0443 114.069 83.5374 114.365 83.2135C114.662 82.8897 115.171 82.8686 115.496 83.1643L118.958 86.3394L125.67 79.0105C125.967 78.6867 126.476 78.6585 126.801 78.9612C127.126 79.2569 127.154 79.7638 126.85 80.0877L119.064 88.5993Z" fill="#407BFF"/>
<path d="M119.064 88.5993L114.415 84.34C114.09 84.0443 114.069 83.5374 114.365 83.2135C114.662 82.8897 115.171 82.8686 115.496 83.1643L118.958 86.3394L125.67 79.0105C125.967 78.6867 126.476 78.6585 126.801 78.9612C127.126 79.2569 127.154 79.7638 126.85 80.0877L119.064 88.5993Z" fill="#0076CB"/>
<path d="M121.876 75.2791H115.793C114.931 75.2791 114.175 74.5821 114.097 73.7302L113.567 67.6615C113.532 67.2321 113.666 66.8237 113.949 66.521C114.231 66.2183 114.62 66.0493 115.051 66.0493H121.134C121.996 66.0493 122.752 66.7463 122.83 67.5982L123.36 73.6669C123.395 74.0963 123.261 74.5047 122.978 74.8074C122.703 75.1101 122.307 75.2791 121.876 75.2791ZM115.044 66.7674C114.818 66.7674 114.62 66.8519 114.479 67.0068C114.337 67.1617 114.267 67.3729 114.288 67.5911L114.818 73.6598C114.86 74.1527 115.298 74.5469 115.786 74.5469H121.869C122.095 74.5469 122.293 74.4624 122.434 74.3075C122.576 74.1527 122.646 73.9414 122.625 73.7232L122.095 67.6545C122.053 67.1617 121.615 66.7674 121.127 66.7674H115.044Z" fill="#263238"/>
<g opacity="0.5">
<path opacity="0.5" d="M121.876 75.2791H115.793C114.931 75.2791 114.175 74.5821 114.097 73.7302L113.567 67.6615C113.532 67.2321 113.666 66.8237 113.949 66.521C114.231 66.2183 114.62 66.0493 115.051 66.0493H121.134C121.996 66.0493 122.752 66.7463 122.83 67.5982L123.36 73.6669C123.395 74.0963 123.261 74.5047 122.978 74.8074C122.703 75.1101 122.307 75.2791 121.876 75.2791ZM115.044 66.7674C114.818 66.7674 114.62 66.8519 114.479 67.0068C114.337 67.1617 114.267 67.3729 114.288 67.5911L114.818 73.6598C114.86 74.1527 115.298 74.5469 115.786 74.5469H121.869C122.095 74.5469 122.293 74.4624 122.434 74.3075C122.576 74.1527 122.646 73.9414 122.625 73.7232L122.095 67.6545C122.053 67.1617 121.615 66.7674 121.127 66.7674H115.044Z" fill="white"/>
</g>
<path d="M117.199 73.1882L112.55 68.9288C112.225 68.6332 112.203 68.1263 112.5 67.8024C112.797 67.4786 113.306 67.4574 113.631 67.7531L117.093 70.9283L123.805 63.5994C124.102 63.2755 124.611 63.2474 124.936 63.5501C125.261 63.8458 125.289 64.3527 124.985 64.6765L117.199 73.1882Z" fill="#407BFF"/>
<path d="M117.199 73.1882L112.55 68.9288C112.225 68.6332 112.203 68.1263 112.5 67.8024C112.797 67.4786 113.306 67.4574 113.631 67.7531L117.093 70.9283L123.805 63.5994C124.102 63.2755 124.611 63.2474 124.936 63.5501C125.261 63.8458 125.289 64.3527 124.985 64.6765L117.199 73.1882Z" fill="#0076CB"/>
<path d="M120.11 58.9952H114.026C113.164 58.9952 112.408 58.2982 112.33 57.4463L111.8 51.3776C111.765 50.9481 111.899 50.5398 112.182 50.2371C112.465 49.9343 112.853 49.7654 113.284 49.7654H119.368C120.23 49.7654 120.986 50.4624 121.063 51.3142L121.593 57.3829C121.629 57.8124 121.494 58.2207 121.212 58.5235C120.936 58.8262 120.541 58.9952 120.11 58.9952ZM113.277 50.4835C113.051 50.4835 112.853 50.568 112.712 50.7229C112.571 50.8777 112.5 51.089 112.521 51.3072L113.051 57.3759C113.093 57.8687 113.532 58.263 114.019 58.263H120.102C120.329 58.263 120.526 58.1785 120.668 58.0236C120.809 57.8687 120.88 57.6575 120.858 57.4393L120.329 51.3706C120.286 50.8777 119.848 50.4835 119.361 50.4835H113.277Z" fill="#263238"/>
<g opacity="0.5">
<path opacity="0.5" d="M120.11 58.9952H114.026C113.164 58.9952 112.408 58.2982 112.33 57.4463L111.8 51.3776C111.765 50.9481 111.899 50.5398 112.182 50.2371C112.465 49.9343 112.853 49.7654 113.284 49.7654H119.368C120.23 49.7654 120.986 50.4624 121.063 51.3142L121.593 57.3829C121.629 57.8124 121.494 58.2207 121.212 58.5235C120.936 58.8262 120.541 58.9952 120.11 58.9952ZM113.277 50.4835C113.051 50.4835 112.853 50.568 112.712 50.7229C112.571 50.8777 112.5 51.089 112.521 51.3072L113.051 57.3759C113.093 57.8687 113.532 58.263 114.019 58.263H120.102C120.329 58.263 120.526 58.1785 120.668 58.0236C120.809 57.8687 120.88 57.6575 120.858 57.4393L120.329 51.3706C120.286 50.8777 119.848 50.4835 119.361 50.4835H113.277Z" fill="white"/>
</g>
<path d="M115.432 56.9043L110.783 52.6449C110.458 52.3492 110.437 51.8423 110.734 51.5185C111.03 51.1946 111.539 51.1735 111.864 51.4692L115.326 54.6443L122.038 47.3154C122.335 46.9916 122.844 46.9634 123.169 47.2662C123.494 47.5618 123.522 48.0687 123.218 48.3926L115.432 56.9043Z" fill="#407BFF"/>
<path d="M115.432 56.9043L110.783 52.6449C110.458 52.3492 110.437 51.8423 110.734 51.5185C111.03 51.1946 111.539 51.1735 111.864 51.4692L115.326 54.6443L122.038 47.3154C122.335 46.9916 122.844 46.9634 123.169 47.2662C123.494 47.5618 123.522 48.0687 123.218 48.3926L115.432 56.9043Z" fill="#0076CB"/>
<path d="M144.302 24.7404C149.117 24.7404 153.021 20.8438 153.021 16.0372C153.021 11.2306 149.117 7.33411 144.302 7.33411C139.487 7.33411 135.583 11.2306 135.583 16.0372C135.583 20.8438 139.487 24.7404 144.302 24.7404Z" fill="#49A76E"/>
<path d="M139.74 16.6102L143.003 19.2042L148.864 12.0526" fill="#49A76E"/>
<path d="M139.74 16.6102L143.003 19.2042L148.864 12.0526" stroke="#FFFFFD" stroke-width="4" stroke-miterlimit="10" stroke-linecap="round" stroke-linejoin="round"/>
<path d="M13.6001 108.95C16.6328 108.95 19.0913 106.496 19.0913 103.468C19.0913 100.441 16.6328 97.9868 13.6001 97.9868C10.5674 97.9868 8.10889 100.441 8.10889 103.468C8.10889 106.496 10.5674 108.95 13.6001 108.95Z" fill="#49A76E"/>
<path d="M10.7271 103.829L12.7818 105.463L16.4732 100.958" fill="#49A76E"/>
<path d="M10.7271 103.829L12.7818 105.463L16.4732 100.958" stroke="#FFFFFD" stroke-width="2" stroke-miterlimit="10" stroke-linecap="round" stroke-linejoin="round"/>
<path d="M213.131 99.2763C216.164 99.2763 218.622 96.8221 218.622 93.7948C218.622 90.7674 216.164 88.3132 213.131 88.3132C210.098 88.3132 207.64 90.7674 207.64 93.7948C207.64 96.8221 210.098 99.2763 213.131 99.2763Z" fill="#49A76E"/>
<path d="M210.258 94.1557L212.313 95.7895L216.004 91.2852" fill="#49A76E"/>
<path d="M210.258 94.1557L212.313 95.7895L216.004 91.2852" stroke="#FFFFFD" stroke-width="2" stroke-miterlimit="10" stroke-linecap="round" stroke-linejoin="round"/>
<path d="M226.392 66.6861H207.663C207.106 66.6861 206.647 66.2363 206.647 65.672C206.647 65.1154 207.098 64.658 207.663 64.658H226.392C226.95 64.658 227.408 65.1078 227.408 65.672C227.408 66.2363 226.958 66.6861 226.392 66.6861Z" fill="#EBF5FF"/>
<path d="M226.392 70.9864H207.663C207.105 70.9864 206.647 70.5366 206.647 69.9723C206.647 69.4157 207.098 68.9583 207.663 68.9583H226.392C226.949 68.9583 227.408 69.4081 227.408 69.9723C227.408 70.5289 226.957 70.9864 226.392 70.9864Z" fill="#EBF5FF"/>
<path d="M226.392 75.2792H207.663C207.105 75.2792 206.647 74.8293 206.647 74.2651C206.647 73.7085 207.098 73.251 207.663 73.251H226.392C226.949 73.251 227.408 73.7008 227.408 74.2651C227.408 74.8293 226.957 75.2792 226.392 75.2792Z" fill="#EBF5FF"/>
<path d="M68.3581 2.29429H49.6292C49.0716 2.29429 48.6133 1.84443 48.6133 1.2802C48.6133 0.723597 49.0639 0.266113 49.6292 0.266113H68.3581C68.9157 0.266113 69.374 0.715972 69.374 1.2802C69.374 1.84443 68.9233 2.29429 68.3581 2.29429Z" fill="#EBF5FF"/>
<path d="M68.3581 6.59471H49.6292C49.0716 6.59471 48.6133 6.14485 48.6133 5.58062C48.6133 5.02401 49.0639 4.56653 49.6292 4.56653H68.3581C68.9157 4.56653 69.374 5.01639 69.374 5.58062C69.374 6.13722 68.9233 6.59471 68.3581 6.59471Z" fill="#EBF5FF"/>
<path d="M68.3581 10.8873H49.6292C49.0716 10.8873 48.6133 10.4374 48.6133 9.87322C48.6133 9.31661 49.0639 8.85913 49.6292 8.85913H68.3581C68.9157 8.85913 69.374 9.30899 69.374 9.87322C69.374 10.4374 68.9233 10.8873 68.3581 10.8873Z" fill="#EBF5FF"/>
<path d="M20.0915 69.4928H1.36257C0.804975 69.4928 0.34668 69.0429 0.34668 68.4787C0.34668 67.9221 0.797337 67.4646 1.36257 67.4646H20.0915C20.6491 67.4646 21.1074 67.9145 21.1074 68.4787C21.1074 69.0429 20.6567 69.4928 20.0915 69.4928Z" fill="#EBF5FF"/>
<path d="M20.0915 73.7931H1.36257C0.804975 73.7931 0.34668 73.3432 0.34668 72.779C0.34668 72.2224 0.797337 71.7649 1.36257 71.7649H20.0915C20.6491 71.7649 21.1074 72.2148 21.1074 72.779C21.1074 73.3356 20.6567 73.7931 20.0915 73.7931Z" fill="#EBF5FF"/>
<path d="M20.0915 78.0858H1.36257C0.804975 78.0858 0.34668 77.6359 0.34668 77.0717C0.34668 76.5151 0.797337 76.0576 1.36257 76.0576H20.0915C20.6491 76.0576 21.1074 76.5075 21.1074 77.0717C21.1074 77.6359 20.6567 78.0858 20.0915 78.0858Z" fill="#EBF5FF"/>
</svg>
