<svg width="17" height="13" viewBox="0 0 17 13" fill="none" xmlns="http://www.w3.org/2000/svg">
<path d="M14.1803 0.595356C14.4515 0.337156 14.8124 0.194413 15.1869 0.197246C15.5613 0.200079 15.92 0.348268 16.1873 0.610542C16.4546 0.872816 16.6095 1.22866 16.6194 1.60299C16.6293 1.97732 16.4934 2.34086 16.2404 2.61689L8.55854 12.224C8.42645 12.3662 8.26703 12.4804 8.0898 12.5597C7.91257 12.6389 7.72119 12.6816 7.52708 12.6852C7.33298 12.6888 7.14014 12.6532 6.9601 12.5806C6.78006 12.508 6.61652 12.3998 6.47925 12.2625L1.38499 7.16822C1.24313 7.03603 1.12934 6.87662 1.05042 6.69949C0.971497 6.52237 0.929061 6.33116 0.92564 6.13728C0.922219 5.9434 0.957884 5.75082 1.03051 5.57102C1.10313 5.39123 1.21122 5.2279 1.34834 5.09078C1.48545 4.95367 1.64878 4.84557 1.82858 4.77295C2.00838 4.70033 2.20096 4.66466 2.39484 4.66808C2.58872 4.6715 2.77992 4.71394 2.95705 4.79286C3.13417 4.87178 3.29358 4.98557 3.42578 5.12744L7.45729 9.15702L14.1437 0.637712C14.1558 0.622889 14.1686 0.608748 14.1822 0.595356H14.1803Z" fill="white"/>
</svg>
