<svg width="14" height="15" viewBox="0 0 14 15" fill="none" xmlns="http://www.w3.org/2000/svg">
<path d="M6.87321 5.2728C5.51613 5.2728 4.41696 6.37197 4.41696 7.72905C4.41696 9.08612 5.51613 10.1853 6.87321 10.1853C8.23029 10.1853 9.32946 9.08612 9.32946 7.72905C9.32946 6.37197 8.23029 5.2728 6.87321 5.2728ZM12.3629 7.11498C12.2238 5.86974 11.6654 4.70881 10.7794 3.82281C9.89345 2.93681 8.73252 2.37843 7.48727 2.23933V0.974365H6.25915V2.23933C5.01391 2.37843 3.85297 2.93681 2.96698 3.82281C2.08098 4.70881 1.52259 5.86974 1.3835 7.11498H0.11853V8.34311H1.3835C1.52259 9.58835 2.08098 10.7493 2.96698 11.6353C3.85297 12.5213 5.01391 13.0797 6.25915 13.2188V14.4837H7.48727V13.2188C8.73252 13.0797 9.89345 12.5213 10.7794 11.6353C11.6654 10.7493 12.2238 9.58835 12.3629 8.34311H13.6279V7.11498H12.3629ZM6.87321 12.0275C4.49679 12.0275 2.57478 10.1055 2.57478 7.72905C2.57478 5.35263 4.49679 3.43061 6.87321 3.43061C9.24963 3.43061 11.1716 5.35263 11.1716 7.72905C11.1716 10.1055 9.24963 12.0275 6.87321 12.0275Z" fill="white"/>
</svg>
