<svg width="1024" height="512" viewBox="0 0 1024 512" fill="none" xmlns="http://www.w3.org/2000/svg">
<g clip-path="url(#clip0)">
<rect width="1024" height="512" fill="white"/>
<path d="M323.599 61H266.708C260.56 61 255.498 64.4948 251.641 71.605C171.005 214.652 129.18 288.766 126.408 293.707L206.321 440.369C210.057 447.479 215.24 450.974 221.87 450.974H278.279C281.774 450.974 284.305 449.769 285.872 447.479C287.439 444.828 287.319 441.936 285.631 438.802L206.441 293.707V293.586L330.951 73.2921C332.639 70.0383 332.639 67.1461 330.951 64.6153C329.505 62.2051 327.094 61 323.599 61ZM102.061 148.491C97.9625 141.381 92.7796 137.886 86.5119 137.886H30.1029C26.4869 137.886 23.9558 139.091 22.5094 141.381C20.8219 143.791 20.8219 146.683 22.7504 150.058L60.7181 215.857C60.8386 215.977 60.8386 216.098 60.7181 216.098L1.17519 321.786C-0.39173 324.799 -0.39173 327.571 1.17519 330.222C2.74211 332.873 5.15275 334.199 8.52765 334.199H64.9367C70.9633 334.199 76.0256 330.583 80.2443 323.353C119.056 254.541 139.305 218.629 140.872 215.857L102.061 148.491Z" fill="url(#paint0_linear)"/>
<path d="M394.782 293.44V415.641H431.646V436.008H372.379V293.44H394.782Z" fill="#077FE8"/>
<path d="M439.562 327.657C439.562 316.251 442.481 307.425 448.32 301.18C454.158 294.934 462.577 291.811 473.575 291.811C484.573 291.811 492.991 294.934 498.83 301.18C504.668 307.425 507.587 316.251 507.587 327.657V401.792C507.587 413.197 504.668 422.023 498.83 428.269C492.991 434.514 484.573 437.637 473.575 437.637C462.577 437.637 454.158 434.514 448.32 428.269C442.481 422.023 439.562 413.197 439.562 401.792V327.657ZM461.966 403.217C461.966 412.586 465.835 417.27 473.575 417.27C481.314 417.27 485.184 412.586 485.184 403.217V326.231C485.184 316.862 481.314 312.178 473.575 312.178C465.835 312.178 461.966 316.862 461.966 326.231V403.217Z" fill="#077FE8"/>
<path d="M587.116 356.577V401.792C587.116 413.333 584.265 422.226 578.562 428.472C572.86 434.582 564.577 437.637 553.715 437.637C542.853 437.637 534.57 434.582 528.867 428.472C523.165 422.226 520.313 413.333 520.313 401.792V327.657C520.313 316.115 523.165 307.29 528.867 301.18C534.57 294.934 542.853 291.811 553.715 291.811C564.577 291.811 572.86 294.934 578.562 301.18C584.265 307.29 587.116 316.115 587.116 327.657V341.506H565.935V326.231C565.935 316.862 562.065 312.178 554.326 312.178C546.586 312.178 542.717 316.862 542.717 326.231V403.217C542.717 412.45 546.586 417.067 554.326 417.067C562.065 417.067 565.935 412.45 565.935 403.217V376.944H555.752V356.577H587.116Z" fill="#077FE8"/>
<path d="M599.672 327.657C599.672 316.251 602.592 307.425 608.43 301.18C614.269 294.934 622.687 291.811 633.685 291.811C644.683 291.811 653.101 294.934 658.94 301.18C664.778 307.425 667.697 316.251 667.697 327.657V401.792C667.697 413.197 664.778 422.023 658.94 428.269C653.101 434.514 644.683 437.637 633.685 437.637C622.687 437.637 614.269 434.514 608.43 428.269C602.592 422.023 599.672 413.197 599.672 401.792V327.657ZM622.076 403.217C622.076 412.586 625.945 417.27 633.685 417.27C641.424 417.27 645.294 412.586 645.294 403.217V326.231C645.294 316.862 641.424 312.178 633.685 312.178C625.945 312.178 622.076 316.862 622.076 326.231V403.217Z" fill="#077FE8"/>
<path d="M713.881 436.008V293.44H736.284V354.541H761.743V293.44H784.554V436.008H761.743V374.908H736.284V436.008H713.881Z" fill="#077FE8"/>
<path d="M853.955 353.522V373.889H823.201V415.641H861.898V436.008H800.798V293.44H861.898V313.807H823.201V353.522H853.955Z" fill="#077FE8"/>
<path d="M922.625 436.008C921.81 433.7 921.267 431.527 920.995 429.491C920.724 427.454 920.588 423.788 920.588 418.493V396.089C920.588 389.572 919.434 384.955 917.126 382.24C914.817 379.388 911.083 377.963 905.924 377.963H898.185V436.008H875.781V293.44H909.59C921.131 293.44 929.549 296.156 934.845 301.587C940.14 306.882 942.788 315.097 942.788 326.231V337.433C942.788 352.097 937.9 361.737 928.124 366.353C933.419 368.526 937.221 372.192 939.529 377.352C941.837 382.375 942.991 388.825 942.991 396.7V418.696C942.991 422.77 943.127 426.096 943.399 428.676C943.67 431.12 944.349 433.564 945.435 436.008H922.625ZM898.185 357.596H906.942C911.423 357.596 914.749 356.442 916.922 354.133C919.23 351.825 920.384 347.955 920.384 342.524V328.471C920.384 323.312 919.434 319.578 917.533 317.269C915.768 314.961 912.916 313.807 908.979 313.807H898.185V357.596Z" fill="#077FE8"/>
<path d="M1010.88 353.522V373.889H980.129V415.641H1018.83V436.008H957.726V293.44H1018.83V313.807H980.129V353.522H1010.88Z" fill="#077FE8"/>
<path d="M445.086 208.512C445.086 221.274 441.933 231.109 435.627 238.016C429.321 244.772 420.162 248.151 408.15 248.151C396.138 248.151 386.979 244.772 380.673 238.016C374.367 231.109 371.214 221.274 371.214 208.512V126.532C371.214 113.769 374.367 104.01 380.673 97.2529C386.979 90.3462 396.138 86.8928 408.15 86.8928C420.162 86.8928 429.321 90.3462 435.627 97.2529C441.933 104.01 445.086 113.769 445.086 126.532V141.847H421.663V124.955C421.663 114.595 417.384 109.415 408.826 109.415C400.267 109.415 395.988 114.595 395.988 124.955V210.088C395.988 220.298 400.267 225.403 408.826 225.403C417.384 225.403 421.663 220.298 421.663 210.088V187.566H445.086V208.512Z" fill="#077FE8"/>
<path d="M458.091 126.532C458.091 113.919 461.319 104.16 467.775 97.2529C474.232 90.3462 483.541 86.8928 495.703 86.8928C507.864 86.8928 517.174 90.3462 523.63 97.2529C530.086 104.16 533.314 113.919 533.314 126.532V208.512C533.314 221.124 530.086 230.884 523.63 237.79C517.174 244.697 507.864 248.151 495.703 248.151C483.541 248.151 474.232 244.697 467.775 237.79C461.319 230.884 458.091 221.124 458.091 208.512V126.532ZM482.865 210.088C482.865 220.448 487.144 225.628 495.703 225.628C504.261 225.628 508.54 220.448 508.54 210.088V124.955C508.54 114.595 504.261 109.415 495.703 109.415C487.144 109.415 482.865 114.595 482.865 124.955V210.088Z" fill="#077FE8"/>
<path d="M618.782 88.6945H653.241V246.349H629.818V133.288L612.701 246.349H589.278L570.81 134.865V246.349H549.189V88.6945H583.648L601.89 200.629L618.782 88.6945Z" fill="#077FE8"/>
<path d="M707.747 88.6945C720.059 88.6945 729.293 91.9978 735.45 98.6042C741.606 105.211 744.684 114.895 744.684 127.658V148.153C744.684 160.915 741.606 170.6 735.45 177.206C729.293 183.813 720.059 187.116 707.747 187.116H696.036V246.349H671.262V88.6945H707.747ZM696.036 164.594H707.747C711.801 164.594 714.804 163.468 716.756 161.215C718.858 158.963 719.909 155.135 719.909 149.729V126.081C719.909 120.676 718.858 116.847 716.756 114.595C714.804 112.343 711.801 111.217 707.747 111.217H696.036V164.594Z" fill="#077FE8"/>
<path d="M812.438 246.349L808.159 217.746H777.754L773.475 246.349H750.728L775.952 88.6945H812.213L837.437 246.349H812.438ZM804.78 196.35L792.844 116.622L780.907 196.35H804.78Z" fill="#077FE8"/>
<path d="M871.046 246.349H848.749V88.6945H879.83L905.28 183.062V88.6945H927.351V246.349H901.901L871.046 132.162V246.349Z" fill="#077FE8"/>
<path d="M936.981 88.6945H962.881L981.8 160.54L1000.72 88.6945H1024.37L993.061 194.098V246.349H968.287V194.098L936.981 88.6945Z" fill="#077FE8"/>
</g>
<defs>
<linearGradient id="paint0_linear" x1="551.722" y1="451.07" x2="551.722" y2="61" gradientUnits="userSpaceOnUse">
<stop stop-color="#0B55D3"/>
<stop offset="0.1069" stop-color="#0A60D8"/>
<stop offset="0.7098" stop-color="#0599F4"/>
<stop offset="1" stop-color="#03AFFF"/>
</linearGradient>
<clipPath id="clip0">
<rect width="1024" height="512" fill="white"/>
</clipPath>
</defs>
</svg>
