<svg width="512" height="512" viewBox="0 0 512 512" fill="none" xmlns="http://www.w3.org/2000/svg">
<path d="M255.9 35C133.9 35 35 133.9 35 255.9C35 377.9 133.9 476.8 255.9 476.8C377.9 476.8 476.8 377.9 476.8 255.9C476.8 133.9 377.9 35 255.9 35ZM255.9 101C296.3 101 329 133.7 329 174.1C329 214.5 296.3 247.2 255.9 247.2C215.6 247.2 182.8 214.5 182.8 174.1C182.8 133.8 215.6 101 255.9 101ZM255.8 419C215.5 419 178.7 404.3 150.2 380.1C143.3 374.2 139.3 365.5 139.3 356.4C139.3 315.5 172.4 282.7 213.3 282.7H298.3C339.2 282.7 372.2 315.4 372.2 356.4C372.2 365.5 368.2 374.1 361.3 380.1C333 404.4 296.1 419 255.8 419Z" fill="url(#paint0_linear)"/>
<defs>
<linearGradient id="paint0_linear" x1="99.7047" y1="412.084" x2="412.095" y2="99.6931" gradientUnits="userSpaceOnUse">
<stop stop-color="#0B55D3"/>
<stop offset="0.219" stop-color="#0970E0"/>
<stop offset="0.5493" stop-color="#0692F1"/>
<stop offset="0.8215" stop-color="#04A7FB"/>
<stop offset="1" stop-color="#03AFFF"/>
</linearGradient>
</defs>
</svg>
