<svg width="512" height="512" viewBox="0 0 512 512" fill="none" xmlns="http://www.w3.org/2000/svg">
<path d="M357.7 332.8L292.5 434.8C275.6 461.1 237.2 461 220.4 434.8L155 332.8C97.4 346.1 62 370.4 62 399.5C62 450 162.1 477.2 256.4 477.2C350.7 477.2 450.8 450 450.8 399.5C450.7 370.4 415.2 346 357.7 332.8Z" fill="#DBF1FF"/>
<path d="M203.5 215C196 204.4 191.5 191.5 191.5 177.6C191.5 141.9 220.6 112.8 256.3 112.8C281.2 112.8 302.9 127 313.7 147.7L380.1 107.1C355.7 64.1 309.3 35 256.4 35C178.6 35 113.8 97.6 113.8 177.5C113.8 205.9 121.8 231.5 137.2 255.4L203.5 215Z" fill="url(#paint0_linear)"/>
<path d="M318.8 160.2C320.3 165.7 321.2 171.5 321.2 177.5C321.2 213.2 292.1 242.3 256.4 242.3C239.5 242.3 224.1 235.8 212.5 225.1L144.5 266.6L245.5 424.2C250.6 432.2 262.2 432.1 267.3 424.2L372.7 259.9C389.9 235.6 398.9 207.2 398.9 177.5C398.9 156.6 394.4 136.8 386.3 119L318.8 160.2Z" fill="url(#paint1_linear)"/>
<path d="M88.7 283.7C85.7 283.7 82.8 282.2 81.1 279.4C78.5 275.2 79.9 269.7 84.1 267.2L419.4 62.5C423.6 59.9 429.1 61.3 431.6 65.5C434.2 69.7 432.8 75.2 428.6 77.7L93.3 282.4C91.9 283.3 90.3 283.7 88.7 283.7Z" fill="#DC0024"/>
<defs>
<linearGradient id="paint0_linear" x1="99.4071" y1="190.403" x2="346.106" y2="47.9717" gradientUnits="userSpaceOnUse">
<stop stop-color="#0B55D3"/>
<stop offset="0.0625673" stop-color="#0A64DA"/>
<stop offset="0.1988" stop-color="#077FE8"/>
<stop offset="0.3473" stop-color="#0595F2"/>
<stop offset="0.512" stop-color="#04A3F9"/>
<stop offset="0.7056" stop-color="#03ACFE"/>
<stop offset="1" stop-color="#03AFFF"/>
</linearGradient>
<linearGradient id="paint1_linear" x1="192.562" y1="349.952" x2="437.885" y2="208.315" gradientUnits="userSpaceOnUse">
<stop stop-color="#0B55D3"/>
<stop offset="0.0625673" stop-color="#0A64DA"/>
<stop offset="0.1988" stop-color="#077FE8"/>
<stop offset="0.3473" stop-color="#0595F2"/>
<stop offset="0.512" stop-color="#04A3F9"/>
<stop offset="0.7056" stop-color="#03ACFE"/>
<stop offset="1" stop-color="#03AFFF"/>
</linearGradient>
</defs>
</svg>
